<svg width="24" height="24" viewBox="0 0 24 24" fill="none" xmlns="http://www.w3.org/2000/svg">
<g clip-path="url(#clip0_14_212)">
<path d="M20 4C20.6661 4.65104 21.1952 5.42884 21.5561 6.28756C21.9169 7.14628 22.1022 8.06855 22.101 9C22.101 10.959 21.297 12.73 20 14" stroke="#1A1A1A" stroke-width="1.7" stroke-linecap="round"/>
<mask id="mask0_14_212" style="mask-type:alpha" maskUnits="userSpaceOnUse" x="-1" y="0" width="18" height="23">
<path fill-rule="evenodd" clip-rule="evenodd" d="M9.5 14H10.218L15.449 17.452C15.5998 17.5515 15.7747 17.6084 15.9552 17.6165C16.1357 17.6246 16.315 17.5836 16.474 17.498C16.6331 17.4124 16.766 17.2852 16.8586 17.1301C16.9512 16.975 17.0001 16.7977 17 16.617V1.858C17 1.67749 16.9511 1.50036 16.8585 1.34539C16.766 1.19042 16.6332 1.06339 16.4743 0.977786C16.3154 0.892177 16.1362 0.851178 15.9559 0.859139C15.7756 0.867099 15.6008 0.923722 15.45 1.023L10.937 4H5C3.84344 3.99912 2.72233 4.39922 1.82764 5.13215C0.932958 5.86507 0.320027 6.8855 0.0932506 8.01962C-0.133525 9.15373 0.0398799 10.3314 0.58393 11.352C1.12798 12.3726 2.00903 13.1731 3.077 13.617L5.044 20.829C5.18862 21.359 5.52066 21.8184 5.97846 22.122C6.43626 22.4257 6.9887 22.5528 7.53317 22.4799C8.07764 22.4069 8.57713 22.1388 8.93886 21.7254C9.3006 21.312 9.49999 20.7813 9.5 20.232V14Z" fill="#1A1A1A"/>
</mask>
<g mask="url(#mask0_14_212)">
<path d="M10.218 14L11.154 12.581L10.728 12.301H10.218V14ZM9.5 14V12.3H7.8V14H9.5ZM15.45 17.452L14.513 18.872L15.449 17.452H15.45ZM15.45 1.023L14.513 -0.396L15.449 1.024L15.45 1.023ZM10.937 4V5.7H11.447L11.873 5.42L10.938 4H10.937ZM3.077 13.617L4.717 13.17L4.497 12.368L3.731 12.048L3.076 13.618L3.077 13.617ZM5.043 20.829L6.683 20.382L5.043 20.829ZM10.217 12.3H9.5V15.7H10.218V12.3H10.217ZM16.385 16.033L11.153 12.581L9.28 15.42L14.512 18.872L16.385 16.034V16.033ZM15.299 16.617C15.2991 16.4907 15.3334 16.3668 15.3982 16.2584C15.4631 16.1499 15.556 16.0611 15.6672 16.0012C15.7785 15.9414 15.9038 15.9127 16.03 15.9183C16.1562 15.9239 16.2785 15.9635 16.384 16.033L14.512 18.871C16.307 20.056 18.699 18.768 18.699 16.618H15.299V16.617ZM15.299 1.858V16.618H18.699V1.857H15.299V1.858ZM16.384 2.442C16.2785 2.51147 16.1562 2.55111 16.03 2.5567C15.9038 2.56229 15.7785 2.53364 15.6672 2.47377C15.556 2.4139 15.4631 2.32506 15.3982 2.21665C15.3334 2.10824 15.2991 1.98431 15.299 1.858H18.699C18.699 -0.292 16.307 -1.58 14.512 -0.396L16.385 2.442H16.384ZM11.874 5.419L16.384 2.442L14.512 -0.396L10.001 2.581L11.873 5.419H11.874ZM5 5.7H10.938V2.3H5V5.7ZM1.7 9C1.7 8.12479 2.04768 7.28542 2.66655 6.66655C3.28542 6.04768 4.12479 5.7 5 5.7V2.3C1.3 2.3 -1.7 5.3 -1.7 9H1.7ZM3.732 12.048C3.13017 11.7974 2.61603 11.3742 2.25441 10.8317C1.89278 10.2893 1.69987 9.65193 1.7 9H-1.7C-1.70014 10.3229 -1.3087 11.6163 -0.574982 12.7172C0.158733 13.818 1.20188 14.677 2.423 15.186L3.732 12.048ZM6.684 20.382L4.718 13.17L1.438 14.065L3.404 21.276L6.684 20.382ZM7.232 20.8C7.10747 20.8 6.98637 20.7591 6.88736 20.6836C6.78834 20.6081 6.71689 20.5021 6.684 20.382L3.404 21.276C3.63302 22.1158 4.13182 22.8569 4.82355 23.3853C5.51528 23.9137 6.36156 24.2 7.232 24.2V20.8ZM7.8 20.232C7.8 20.3826 7.74016 20.5271 7.63364 20.6336C7.52712 20.7402 7.38265 20.8 7.232 20.8V24.2C8.28438 24.2 9.29366 23.7819 10.0378 23.0378C10.7819 22.2937 11.2 21.2844 11.2 20.232H7.8ZM7.8 14V20.232H11.2V14H7.8Z" fill="#1A1A1A"/>
</g>
</g>
<defs>
<clipPath id="clip0_14_212">
<rect width="24" height="24" fill="white"/>
</clipPath>
</defs>
</svg>
